<svg width="40" height="40" viewBox="0 0 40 40" fill="none" xmlns="http://www.w3.org/2000/svg">
<path d="M20 40C8.98 40 0 31.02 0 20C0 8.98 8.98 0 20 0C31.02 0 40 8.08 40 18C40 24.62 34.62 30 28 30H24.46C23.9 30 23.46 30.44 23.46 31C23.46 31.24 23.56 31.46 23.72 31.66C24.54 32.6 25 33.78 25 35C25 37.76 22.76 40 20 40ZM20 4C11.18 4 4 11.18 4 20C4 28.82 11.18 36 20 36C20.56 36 21 35.56 21 35C21 34.68 20.84 34.44 20.72 34.3C19.9 33.38 19.46 32.2 19.46 31C19.46 28.24 21.7 26 24.46 26H28C32.42 26 36 22.42 36 18C36 10.28 28.82 4 20 4Z" fill="#19BB35"/>
<path d="M9 22C10.6569 22 12 20.6569 12 19C12 17.3431 10.6569 16 9 16C7.34315 16 6 17.3431 6 19C6 20.6569 7.34315 22 9 22Z" fill="#19BB35"/>
<path d="M15 14C16.6569 14 18 12.6569 18 11C18 9.34315 16.6569 8 15 8C13.3431 8 12 9.34315 12 11C12 12.6569 13.3431 14 15 14Z" fill="#19BB35"/>
<path d="M25 14C26.6569 14 28 12.6569 28 11C28 9.34315 26.6569 8 25 8C23.3431 8 22 9.34315 22 11C22 12.6569 23.3431 14 25 14Z" fill="#19BB35"/>
<path d="M31 22C32.6569 22 34 20.6569 34 19C34 17.3431 32.6569 16 31 16C29.3431 16 28 17.3431 28 19C28 20.6569 29.3431 22 31 22Z" fill="#19BB35"/>
</svg>
