<svg width="50" height="40" viewBox="0 0 50 40" fill="none" xmlns="http://www.w3.org/2000/svg">
<path d="M32.5 30H40C41.375 30 42.5 28.875 42.5 27.5V12.5C42.5 11.125 41.375 10 40 10H32.5C31.125 10 30 11.125 30 12.5V27.5C30 28.875 31.125 30 32.5 30ZM35 15H37.5V25H35V15ZM17.5 30H25C26.375 30 27.5 28.875 27.5 27.5V12.5C27.5 11.125 26.375 10 25 10H17.5C16.125 10 15 11.125 15 12.5V27.5C15 28.875 16.125 30 17.5 30ZM20 15H22.5V25H20V15ZM7.5 10H12.5V30H7.5V10ZM0 0V40H50V0H0ZM45 35H5V5H45V35Z" fill="#19BB35"/>
</svg>
