<svg width="80" height="56" viewBox="0 0 80 56" fill="none" xmlns="http://www.w3.org/2000/svg">
<path d="M28 35C18.64 35 0 39.68 0 49V56H56V49C56 39.68 37.36 35 28 35ZM9.36 48C12.72 45.68 20.84 43 28 43C35.16 43 43.28 45.68 46.64 48H9.36ZM28 28C35.72 28 42 21.72 42 14C42 6.28 35.72 0 28 0C20.28 0 14 6.28 14 14C14 21.72 20.28 28 28 28ZM28 8C31.32 8 34 10.68 34 14C34 17.32 31.32 20 28 20C24.68 20 22 17.32 22 14C22 10.68 24.68 8 28 8ZM56.16 35.24C60.8 38.6 64 43.08 64 49V56H80V49C80 40.92 66 36.32 56.16 35.24ZM52 28C59.72 28 66 21.72 66 14C66 6.28 59.72 0 52 0C49.84 0 47.84 0.52 46 1.4C48.52 4.96 50 9.32 50 14C50 18.68 48.52 23.04 46 26.6C47.84 27.48 49.84 28 52 28Z" fill="#19BB35"/>
</svg>
