<svg width="40" height="40" viewBox="0 0 40 40" fill="none" xmlns="http://www.w3.org/2000/svg">
<path d="M26.98 15.26C26.62 9.68 24.36 4.24 20.12 0C15.84 4.28 13.48 9.72 13.02 15.26C15.58 16.62 17.94 18.38 20 20.52C22.06 18.4 24.42 16.64 26.98 15.26ZM20.1 6.38C21.36 8.44 22.24 10.74 22.7 13.14C21.76 13.74 20.88 14.4 20.02 15.1C19.18 14.42 18.28 13.76 17.36 13.16C17.86 10.76 18.78 8.46 20.1 6.38ZM20 26.9C18.36 24.4 16.28 22.22 13.88 20.5C13.62 20.32 13.34 20.18 13.08 19.98C13.34 20.16 13.62 20.32 13.86 20.48C9.96 17.66 5.18 16 0 16C0 26.64 6.72 35.64 16.06 38.98C17.32 39.44 18.64 39.78 20 40C21.36 39.76 22.66 39.42 23.94 38.98C33.28 35.64 40 26.64 40 16C31.64 16 24.3 20.34 20 26.9ZM22.64 35.2C21.76 35.5 20.88 35.74 19.98 35.94C19.1 35.76 18.24 35.52 17.42 35.22C10.84 32.86 6.02 27.24 4.52 20.52C6.72 21.04 8.82 21.94 10.76 23.18L10.72 23.2C10.98 23.38 11.24 23.56 11.5 23.7L11.64 23.78C13.62 25.22 15.32 27 16.66 29.08L20 34.2L23.34 29.1C24.72 27 26.44 25.2 28.4 23.78L28.54 23.68C28.72 23.58 28.9 23.46 29.08 23.34L29.06 23.3C31.02 22 33.2 21.04 35.48 20.5C33.98 27.24 29.18 32.86 22.64 35.2ZM13.98 20.56C13.94 20.54 13.9 20.5 13.88 20.48C13.88 20.48 13.9 20.48 13.9 20.5C13.92 20.52 13.94 20.54 13.98 20.56Z" fill="#19BB35"/>
</svg>
