<svg width="32" height="40" viewBox="0 0 32 40" fill="none" xmlns="http://www.w3.org/2000/svg">
<path d="M30.9671 21.1736C27.8264 13.2145 16.6438 12.7853 19.3445 1.21736C19.5445 0.35903 18.6043 -0.304227 17.8441 0.144447C10.5824 4.31906 5.36124 12.6878 9.74225 23.651C10.1023 24.5484 9.02208 25.3872 8.2419 24.802C4.62107 22.1295 4.24098 18.2865 4.56105 15.5359C4.68108 14.5215 3.32077 14.0338 2.74063 14.8726C1.38032 16.9014 0 20.1787 0 25.1141C0.760175 36.0383 10.2224 39.3936 13.6231 39.8228C18.4843 40.4275 23.7455 39.5497 27.5264 36.1749C31.6873 32.4099 33.2077 26.4016 30.9671 21.1736ZM12.4029 30.9859C15.2835 30.3031 16.7639 28.2743 17.164 26.4796C17.8241 23.6901 15.2435 20.959 16.9839 16.5503C17.6441 20.1982 23.5254 22.4806 23.5254 26.4601C23.6855 31.3955 18.2042 35.6287 12.4029 30.9859Z" fill="#19BB35"/>
</svg>
