<svg width="40" height="37" viewBox="0 0 40 37" fill="none" xmlns="http://www.w3.org/2000/svg">
<path d="M29 0C25.52 0 22.18 1.63324 20 4.21417C17.82 1.63324 14.48 0 11 0C4.84 0 0 4.87956 0 11.0899C0 18.7117 6.8 24.9221 17.1 34.3586L20 37L22.9 34.3384C33.2 24.9221 40 18.7117 40 11.0899C40 4.87956 35.16 0 29 0ZM20.2 31.3542L20 31.5559L19.8 31.3542C10.28 22.6638 4 16.9172 4 11.0899C4 7.05722 7 4.0327 11 4.0327C14.08 4.0327 17.08 6.02888 18.14 8.79128H21.88C22.92 6.02888 25.92 4.0327 29 4.0327C33 4.0327 36 7.05722 36 11.0899C36 16.9172 29.72 22.6638 20.2 31.3542Z" fill="#19BB35"/>
</svg>
