<svg width="40" height="40" viewBox="0 0 40 40" fill="none" xmlns="http://www.w3.org/2000/svg">
<path d="M38.8889 0L38.5333 0.0666666L26.6667 4.66667L13.3333 0L0.8 4.22222C0.333333 4.37778 0 4.77778 0 5.28889V38.8889C0 39.5111 0.488889 40 1.11111 40L1.46667 39.9333L13.3333 35.3333L26.6667 40L39.2 35.7778C39.6667 35.6222 40 35.2222 40 34.7111V1.11111C40 0.488889 39.5111 0 38.8889 0ZM15.5556 5.48889L24.4444 8.6V34.5111L15.5556 31.4V5.48889ZM4.44444 7.68889L11.1111 5.44444V31.4444L4.44444 34.0222V7.68889ZM35.5556 32.3111L28.8889 34.5556V8.57778L35.5556 6V32.3111Z" fill="#19BB35"/>
</svg>
