<svg width="77" height="78" viewBox="0 0 77 78" fill="none" xmlns="http://www.w3.org/2000/svg">
<rect x="3" width="73.9376" height="77.2917" rx="10.8944" fill="url(#paint0_linear_60_282)"/>
<path d="M1.52148 46.5689C5.76076 43.3263 9.90315 39.7681 12.9447 35.9544C15.5713 32.6609 18.0242 29.1335 19.4019 25.4908C19.549 25.102 19.6558 23.8974 19.6558 24.2988C19.6558 27.0639 19.9397 29.7657 20.7981 32.4809C21.0595 33.3079 22.0538 37.3375 24.463 36.2564C27.2483 35.0065 29.6689 33.2213 31.9515 31.5856C34.0141 30.1075 35.7742 28.3563 36.8698 26.4509C37.1535 25.9575 37.5045 25.3653 37.5045 24.822C37.5045 24.3567 37.3243 25.7448 37.203 26.2028C36.7009 28.0995 35.8412 29.955 35.1008 31.8121C33.7065 35.3097 32.8046 38.8781 31.8643 42.4428C31.1467 45.1631 30.5605 47.8896 30.0397 50.6303C29.8867 51.4358 29.651 52.2576 29.651 53.0736" stroke="white" stroke-width="3.81306"/>
<path d="M35.5215 29.9644C37.7007 28.9146 40.3329 28.691 42.6161 28.2693C48.7918 27.1285 55.0196 26.3164 61.2654 26.0944C61.468 26.0872 62.8703 25.8708 63.0521 26.1184C63.1611 26.2669 62.8315 26.4141 62.7065 26.5422C62.025 27.2408 62.2797 26.9747 61.4675 27.7896C56.5081 32.7652 51.4478 37.4983 46.1503 41.9262C42.9364 44.6125 39.5623 47.1913 36.7343 50.4977C36.1204 51.2155 36.6934 50.9873 37.3147 50.8735C50.1509 48.5215 63.5997 46.7935 76.5215 45.5" stroke="white" stroke-width="3.81306"/>
<defs>
<linearGradient id="paint0_linear_60_282" x1="3" y1="0" x2="80.2157" y2="73.8649" gradientUnits="userSpaceOnUse">
<stop stop-color="#19BB35"/>
<stop offset="0.526042" stop-color="#02C98D" stop-opacity="0.56"/>
<stop offset="0.963542" stop-color="#001AFF" stop-opacity="0.68"/>
</linearGradient>
</defs>
</svg>
