<svg width="73" height="28" viewBox="0 0 73 28" fill="none" xmlns="http://www.w3.org/2000/svg">
<path d="M2 21.3645C5.60484 18.5551 9.1273 15.4723 11.7136 12.1682C13.9472 9.31476 16.033 6.25872 17.2045 3.10274C17.3296 2.76587 17.4204 1.7222 17.4204 2.07003C17.4204 4.46561 17.6618 6.8064 18.3917 9.15883C18.6141 9.8753 19.4596 13.3665 21.5082 12.4299C23.8766 11.347 25.935 9.80031 27.876 8.38313C29.6299 7.10259 31.1266 5.58536 32.0583 3.93452C32.2995 3.50706 32.5979 2.99398 32.5979 2.5233C32.5979 2.12017 32.4447 3.32281 32.3416 3.71956C31.9146 5.3629 31.1836 6.97047 30.554 8.57939C29.3683 11.6096 28.6014 14.7012 27.8018 17.7897C27.1917 20.1465 26.6931 22.5087 26.2503 24.8832C26.1202 25.5811 25.9198 26.2931 25.9198 27" stroke="#19BB35" stroke-width="3.32525"/>
<path d="M31.3406 7.24332C33.5287 6.32777 36.1717 6.13276 38.4642 5.76493C44.6652 4.77 50.9185 4.06174 57.1898 3.86813C57.3932 3.86185 58.8013 3.67308 58.9838 3.88905C59.0932 4.01856 58.7623 4.14689 58.6368 4.25865C57.9525 4.86796 58.2083 4.63588 57.3928 5.34652C52.4131 9.686 47.332 13.814 42.0129 17.6757C38.7858 20.0186 35.3979 22.2678 32.5584 25.1514C31.9419 25.7774 32.5173 25.5784 33.1411 25.4791C46.0299 23.4279 59.0254 22.9322 72.0001 21.8041" stroke="#19BB35" stroke-width="3.32525"/>
</svg>
