<svg width="50" height="35" viewBox="0 0 50 35" fill="none" xmlns="http://www.w3.org/2000/svg">
<path d="M17.5 21.875C11.65 21.875 0 24.8 0 30.625V35H35V30.625C35 24.8 23.35 21.875 17.5 21.875ZM5.85 30C7.95 28.55 13.025 26.875 17.5 26.875C21.975 26.875 27.05 28.55 29.15 30H5.85ZM17.5 17.5C22.325 17.5 26.25 13.575 26.25 8.75C26.25 3.925 22.325 0 17.5 0C12.675 0 8.75 3.925 8.75 8.75C8.75 13.575 12.675 17.5 17.5 17.5ZM17.5 5C19.575 5 21.25 6.675 21.25 8.75C21.25 10.825 19.575 12.5 17.5 12.5C15.425 12.5 13.75 10.825 13.75 8.75C13.75 6.675 15.425 5 17.5 5ZM35.1 22.025C38 24.125 40 26.925 40 30.625V35H50V30.625C50 25.575 41.25 22.7 35.1 22.025ZM32.5 17.5C37.325 17.5 41.25 13.575 41.25 8.75C41.25 3.925 37.325 0 32.5 0C31.15 0 29.9 0.325 28.75 0.875C30.325 3.1 31.25 5.825 31.25 8.75C31.25 11.675 30.325 14.4 28.75 16.625C29.9 17.175 31.15 17.5 32.5 17.5Z" fill="#19BB35"/>
</svg>
