<svg width="22" height="22" viewBox="0 0 22 22" fill="none" xmlns="http://www.w3.org/2000/svg">
<path d="M4.32667 2.44444C4.4 3.53222 4.58333 4.59556 4.87667 5.61L3.41 7.07667C2.90889 5.61 2.59111 4.05778 2.48111 2.44444H4.32667ZM16.3778 17.1356C17.4167 17.4289 18.48 17.6122 19.5556 17.6856V19.5067C17.9422 19.3967 16.39 19.0789 14.9111 18.59L16.3778 17.1356ZM5.5 0H1.22222C0.55 0 0 0.55 0 1.22222C0 12.6989 9.30111 22 20.7778 22C21.45 22 22 21.45 22 20.7778V16.5122C22 15.84 21.45 15.29 20.7778 15.29C19.2622 15.29 17.7833 15.0456 16.4144 14.5933C16.2922 14.5444 16.1578 14.5322 16.0356 14.5322C15.7178 14.5322 15.4122 14.6544 15.1678 14.8867L12.4789 17.5756C9.02 15.8033 6.18444 12.98 4.42444 9.52111L7.11333 6.83222C7.45555 6.49 7.55333 6.01333 7.41889 5.58556C6.96667 4.21667 6.72222 2.75 6.72222 1.22222C6.72222 0.55 6.17222 0 5.5 0Z" fill="#606060"/>
</svg>
