<svg width="19" height="28" viewBox="0 0 19 28" fill="none" xmlns="http://www.w3.org/2000/svg">
<path d="M12.2143 3.57143V10.3571C12.2143 11.8771 12.7164 13.2886 13.5714 14.4286H5.42857C6.31071 13.2614 6.78571 11.85 6.78571 10.3571V3.57143H12.2143ZM16.2857 0.857147H2.71429C1.96786 0.857147 1.35714 1.46786 1.35714 2.21429C1.35714 2.96072 1.96786 3.57143 2.71429 3.57143H4.07143V10.3571C4.07143 12.61 2.25286 14.4286 0 14.4286V17.1429H8.10214V26.6429L9.45929 28L10.8164 26.6429V17.1429H19V14.4286C16.7471 14.4286 14.9286 12.61 14.9286 10.3571V3.57143H16.2857C17.0321 3.57143 17.6429 2.96072 17.6429 2.21429C17.6429 1.46786 17.0321 0.857147 16.2857 0.857147Z" fill="#606060"/>
</svg>
