<svg width="46" height="40" viewBox="0 0 46 40" fill="none" xmlns="http://www.w3.org/2000/svg">
<path d="M43.9091 14.7102H33.8936L24.7355 0.885143C24.3382 0.295048 23.6691 0 23 0C22.3309 0 21.6618 0.295048 21.2645 0.906217L12.1064 14.7102H2.09091C0.940909 14.7102 0 15.6586 0 16.8177C0 17.0074 0.020909 17.1971 0.0836363 17.3867L5.39455 36.9231C5.87545 38.6934 7.48545 40 9.40909 40H36.5909C38.5145 40 40.1245 38.6934 40.6264 36.9231L45.9373 17.3867L46 16.8177C46 15.6586 45.0591 14.7102 43.9091 14.7102ZM23 5.8588L28.8545 14.7102H17.1455L23 5.8588ZM36.5909 35.785L9.43 35.8061L4.83 18.9252H41.1909L36.5909 35.785ZM23 23.1401C20.7 23.1401 18.8182 25.0369 18.8182 27.3551C18.8182 29.6733 20.7 31.5701 23 31.5701C25.3 31.5701 27.1818 29.6733 27.1818 27.3551C27.1818 25.0369 25.3 23.1401 23 23.1401Z" fill="#19BB35"/>
</svg>
